<svg viewBox="0 0 20 20" fill="none" xmlns="http://www.w3.org/2000/svg" shape-rendering="crispEdges" aria-hidden="true">
  <rect x="5" y="3" width="10" height="1" fill="#F2F6F9"/>
  <rect x="4" y="4" width="12" height="1" fill="#F2F6F9"/>
  <rect x="6" y="5" width="8" height="2" fill="#F2F6F9"/>
  <rect x="8" y="7" width="4" height="2" fill="#94A4B6"/>
  <rect x="8" y="8" width="1" height="1" fill="#161D26"/>
  <rect x="11" y="8" width="1" height="1" fill="#161D26"/>
  <rect x="7" y="9" width="6" height="1" fill="#0D1219"/>
  <rect x="6" y="10" width="8" height="3" fill="#161D26"/>
  <rect x="5" y="11" width="2" height="2" fill="#161D26"/>
  <rect x="13" y="11" width="2" height="2" fill="#161D26"/>
  <rect x="6" y="13" width="8" height="1" fill="#0D1219"/>
  <rect x="5" y="14" width="10" height="3" fill="#161D26"/>
  <rect x="6" y="15" width="8" height="2" fill="#00E582"/>
  <rect x="7" y="15" width="1" height="1" fill="#42B4FF"/>
  <rect x="9" y="15" width="2" height="1" fill="#42B4FF"/>
  <rect x="12" y="15" width="1" height="1" fill="#AD5CFF"/>
  <rect x="7" y="16" width="2" height="1" fill="#F2F6F9"/>
  <rect x="10" y="16" width="3" height="1" fill="#42B4FF"/>
</svg>
