<svg viewBox="0 0 20 20" fill="none" xmlns="http://www.w3.org/2000/svg" shape-rendering="crispEdges" aria-hidden="true">
  <rect x="3" y="4" width="1" height="14" fill="#F2F6F9"/>
  <rect x="3" y="17" width="14" height="1" fill="#F2F6F9"/>
  <rect x="4" y="16" width="1" height="1" fill="#00E582"/>
  <rect x="5" y="15" width="1" height="1" fill="#00E582"/>
  <rect x="6" y="14" width="1" height="1" fill="#00E582"/>
  <rect x="7" y="13" width="1" height="1" fill="#00E582"/>
  <rect x="8" y="12" width="1" height="1" fill="#00E582"/>
  <rect x="9" y="11" width="1" height="1" fill="#00E582"/>
  <rect x="10" y="10" width="1" height="1" fill="#00E582"/>
  <rect x="11" y="9" width="1" height="1" fill="#00E582"/>
  <rect x="12" y="8" width="1" height="1" fill="#00E582"/>
  <rect x="13" y="7" width="1" height="1" fill="#00E582"/>
  <rect x="14" y="6" width="1" height="1" fill="#00E582"/>
  <rect x="15" y="5" width="1" height="1" fill="#00E582"/>
  <rect x="5" y="14" width="2" height="2" fill="#42B4FF"/>
  <rect x="7" y="15" width="2" height="2" fill="#FF57E9"/>
  <rect x="9" y="12" width="2" height="2" fill="#AD5CFF"/>
  <rect x="11" y="11" width="2" height="2" fill="#42B4FF"/>
  <rect x="13" y="8" width="2" height="2" fill="#FF57E9"/>
  <rect x="15" y="6" width="2" height="2" fill="#AD5CFF"/>
</svg>
