<svg width="5160" height="3012" viewBox="0 0 5160 3012" fill="none" xmlns="http://www.w3.org/2000/svg">
<path d="M860 3012H430V2582H860V3012ZM1720 3012H1290V2582H1720V3012ZM3870 3012H3440V2582H3870V3012ZM4730 3012H4300V2582H4730V3012ZM430 2582H0V432H430V2582ZM1290 2582H860V432H1290V2582ZM3010 2582H2150V2152H3010V2582ZM4300 2582H3870V432H4300V2582ZM5160 2582H4730V432H5160V2582ZM2150 2152H1720V1722H2150V2152ZM3440 2152H3010V1722H3440V2152ZM2150 1292H1720V862H2150V1292ZM3440 1292H3010V862H3440V1292ZM860 432H430V2H860V432ZM1720 432H1290V2H1720V432ZM4730 432H4300V2H4730V432ZM3870 430H3440V0H3870V430Z" fill="#FF57E9"/>
</svg>
