<svg width="5592" height="3440" viewBox="0 0 5592 3440" fill="none" xmlns="http://www.w3.org/2000/svg">
<path d="M2150 3440H1720V3010H1290V2580H1720V860H1290V430H1720V0H2150V3440ZM4732 3440H4302V3010H4732V3440ZM3871 3010H3441V2580H3871V3010ZM5162 3010H4732V2150H5162V3010ZM1290 2580H860V2150H1290V2580ZM3011 2580H2581V2150H3011V2580ZM4301 2580H3871V860H4301V2580ZM860 2150H0V1290H860V2150ZM3441 2150H3011V1290H3441V2150ZM5592 2150H5162V1290H5592V2150ZM1290 1290H860V860H1290V1290ZM3010 1290H2580V860H3010V1290ZM5161 1290H4731V430H5161V1290ZM3871 860H3441V430H3871V860ZM4731 430H4301V0H4731V430Z" fill="#FF57E9"/>
</svg>
